<?xml version="1.0" encoding="UTF-8" standalone="no"?>
<!-- Created with Inkscape (http://www.inkscape.org/) -->

<svg
   version="1.1"
   id="svg2"
   width="998"
   height="928"
   viewBox="0 0 998 928"
   sodipodi:docname="BlockWhiteBreak.svg"
   inkscape:export-filename="..\..\..\..\Pictures\BlockWhite.png"
   inkscape:export-xdpi="100"
   inkscape:export-ydpi="100"
   inkscape:version="1.2.2 (732a01da63, 2022-12-09)"
   xml:space="preserve"
   xmlns:inkscape="http://www.inkscape.org/namespaces/inkscape"
   xmlns:sodipodi="http://sodipodi.sourceforge.net/DTD/sodipodi-0.dtd"
   xmlns="http://www.w3.org/2000/svg"
   xmlns:svg="http://www.w3.org/2000/svg"><defs
     id="defs6"><inkscape:path-effect
       effect="fillet_chamfer"
       id="path-effect1054"
       is_visible="true"
       lpeversion="1"
       nodesatellites_param="F,0,0,1,0,100,0,1 @ F,0,0,1,0,100,0,1 @ F,0,0,1,0,100,0,1 @ F,0,0,1,0,100,0,1"
       unit="px"
       method="auto"
       mode="F"
       radius="100"
       chamfer_steps="1"
       flexible="false"
       use_knot_distance="true"
       apply_no_radius="true"
       apply_with_radius="true"
       only_selected="false"
       hide_knots="false" /><inkscape:path-effect
       effect="fill_between_many"
       method="originald"
       linkedpaths="#path370,0,1|#path372,0,1|#path376,0,1|#path378,0,1"
       id="path-effect536" /></defs><sodipodi:namedview
     id="namedview4"
     pagecolor="#ffffff"
     bordercolor="#666666"
     borderopacity="1.0"
     inkscape:showpageshadow="2"
     inkscape:pageopacity="0.0"
     inkscape:pagecheckerboard="0"
     inkscape:deskcolor="#d1d1d1"
     showgrid="false"
     inkscape:zoom="0.605581"
     inkscape:cx="396.31362"
     inkscape:cy="553.18777"
     inkscape:current-layer="g8" /><g
     inkscape:groupmode="layer"
     inkscape:label="Image"
     id="g8"><path
       id="rect845"
       style="fill:#ffffff;fill-opacity:1;stroke-width:24;stroke-linecap:round;stroke-linejoin:round;stroke-dashoffset:64.8;stroke-opacity:0.423729;paint-order:markers fill stroke;stop-color:#000000;stroke:none"
       d="M 100 0 A 100 100 0 0 0 4.5859375 71.046875 C 16.211293 73.545018 27.708975 77.604687 39.175781 80.279297 C 50.606925 80.141629 59.462261 88.085439 70.191406 90.380859 C 84.230208 93.513327 98.736029 92.940045 112.88672 94.003906 C 123.45932 98.02387 134.3397 100.47037 145.35547 102.70703 C 156.14244 105.59371 168.51282 105.16492 176.78125 113.91602 C 186.26592 119.28945 192.55446 128.82641 193.10742 139.85547 C 196.13767 151.59752 196.78051 163.90158 199.36719 175.80664 C 204.69552 185.73221 205.59677 197.16502 208.6875 207.72266 C 217.46372 222.69781 233.93524 230.8929 243.00977 245.7207 C 253.19937 260.44903 271.64341 264.15548 287.32031 270.12109 C 298.08855 273.31777 308.92669 276.00209 319.71484 279.08203 C 329.50681 285.5697 339.27382 292.6123 351.68945 293.09375 C 368.60137 297.58728 386.21868 301.62286 401.11328 311.00781 C 412.53454 313.47192 424.00096 315.55938 435.00781 319.625 C 447.21133 325.15905 446.03562 334.48928 452.81055 345.60547 C 460.00124 358.30717 476.01021 356.34318 487.94141 360.54492 C 500.0741 364.29276 513.11097 367.34868 522.28711 376.72461 C 531.04612 382.1736 541.79074 383.35638 551.30859 387.25977 C 563.1979 392.40332 575.85062 395.19238 588.46875 397.86328 C 598.56052 402.06212 610.16001 402.15259 619.53711 407.87695 C 626.47529 415.2826 641.77788 415.87465 652.57617 414.89844 C 656.44218 402.40512 671.80634 402.97409 682.27734 404.52734 C 693.85419 407.96889 703.3357 400.53171 714.04883 398.24609 C 729.97248 395.17856 745.9705 392.26257 762.26953 392.8125 C 773.99317 391.86396 784.93055 388.29054 795.54883 383.9043 C 807.62488 378.91177 820.53133 380.25189 833.02539 378.93555 C 844.0873 376.12325 857.03396 368.65867 867.57031 376.73828 C 877.80806 383.74418 889.80376 387.58956 901.19727 392.2793 C 916.01108 392.68775 930.97164 394.79508 945.85547 394.18555 C 959.44505 390.14441 961.0768 410.03463 973.54883 410.89062 C 982.59152 415.27645 988.92937 423.99668 998 427.99805 L 998 100 A 100 100 0 0 0 898 0 L 100 0 z M 0.19335938 98.785156 A 100 100 0 0 0 0 100 L 0 380.60156 C 4.9740226 378.10226 12.007613 381.5184 17.441406 380.92383 C 25.653908 377.08617 37.298561 378.56184 40.511719 367.7832 C 50.25938 362.49708 61.763082 367.96994 72.066406 365.05469 C 82.212843 360.54037 93.399022 358.39904 104.49219 359.17773 C 114.16583 359.97166 120.20598 349.54193 130.3125 350.95508 C 137.67014 348.77697 145.4056 349.4576 152.96484 349.80664 C 161.44809 350.65539 168.96706 354.85147 177.71289 354.95703 C 185.7729 358.32594 194.61115 356.20876 202.95508 358.12305 C 209.59538 361.06588 215.06683 359.8551 220.34766 355.59961 C 227.7984 351.9936 236.27006 354.40859 243.87695 351.68359 C 250.81808 348.59101 258.43589 348.60111 265.6582 346.55469 C 274.68705 345.0963 283.96029 346.81942 293.08789 346.63086 C 301.31781 347.45679 309.33775 344.95118 317.16602 343.65234 C 316.7699 337.58009 308.7023 333.21766 303.10156 331.17383 C 294.8075 331.53022 286.3275 332.23604 278.11328 330.32812 C 265.4836 328.70593 253.63328 323.17734 244.1875 314.65234 C 235.73848 308.6174 230.66574 299.18253 222.23633 293.17773 C 213.08207 287.03366 202.66921 282.86529 194.19727 275.66016 C 189.85407 270.7253 183.46 268.21719 179.24805 263.04688 C 171.45076 253.18361 165.83111 241.5358 156.27148 233.12305 C 152.2149 225.28488 146.01202 218.83265 140.77148 211.74414 C 135.04075 203.71604 134.80488 193.61879 129.62109 185.32812 C 123.88674 178.21896 124.20229 168.06626 118.23242 161.19922 C 112.98456 153.94046 115.70825 141.22819 104.98828 138.22852 C 95.039852 134.98691 103.22915 122.9146 96.839844 117.88477 C 89.749696 118.08868 82.667839 117.4468 75.634766 116.625 C 68.637019 115.42242 61.931565 112.93554 54.777344 112.78516 C 45.168947 108.81557 34.982652 106.61465 24.716797 105.17383 C 17.362213 104.89224 11.213646 100.15608 3.9355469 99.896484 C 1.9584484 99.706887 2.3033706 99.581061 0.19335938 98.785156 z M 391.72266 418.16797 C 387.9493 417.16672 383.67117 423.86904 379.75391 427.02734 C 371.05094 432.49807 360.44636 433.94844 350.94531 437.9707 C 341.72551 441.28282 332.21901 443.64638 322.39648 444.2207 C 310.9065 445.08956 301.56521 452.55453 290.46289 454.91016 C 284.47453 460.21587 274.74067 459.34028 269.7793 466.38867 C 263.2474 470.13724 256.72733 476.60244 247.98828 477.30664 C 238.35748 477.75251 233.74765 486.73346 226.82422 491.43555 C 219.07659 494.00495 214.24165 501.74994 206.17383 502.20117 C 197.35411 501.53007 188.55171 502.9379 180.57422 506.87695 C 170.17662 512.19962 158.28755 512.44165 147.32812 515.73438 C 140.00189 520.57463 130.99864 519.48082 122.67969 519.41602 C 113.1145 519.97412 104.25566 517.1991 96.435547 511.95117 C 87.837999 511.35231 79.589893 508.3546 70.855469 508.04297 C 62.936544 506.25166 55.143913 504.38752 47.337891 502.63867 C 41.544522 494.01808 32.742715 499.62739 24.4375 500.24805 C 16.049101 502.09848 8.3062847 498.63628 0 498.60156 L 0 828 A 100 100 0 0 0 100 928 L 898 928 A 100 100 0 0 0 971.30273 894.37891 C 969.9592 892.53689 968.80238 890.70785 968.53516 889.25195 C 961.35373 881.72242 955.16703 873.99545 946.79297 867.56641 C 940.14472 862.74127 935.20413 856.10223 927.66211 852.56641 C 918.69799 847.75157 912.07831 840.12312 904.15234 834.00391 C 893.55325 828.06013 884.95672 818.8193 873.05273 815.38477 C 865.14603 812.68404 858.85051 806.75993 851.14844 803.91797 C 840.58566 800.13717 829.29606 796.21221 821.66992 787.67383 C 813.60324 784.97795 807.80896 778.34074 800.32812 774.61719 C 791.08457 768.49214 781.93733 762.55982 773.62891 755.23438 C 765.44872 750.57898 758.32543 743.95943 750.38086 738.86133 C 744.40174 730.09167 736.75667 723.16701 727.1582 718.90234 C 717.67794 714.03859 710.13484 705.95616 702.37891 698.75195 C 697.02914 691.4236 689.89025 685.70878 685.00781 678.05273 C 673.69851 670.88664 671.91304 655.39952 659.26562 649.67188 C 651.70703 642.78688 640.96871 642.45515 633.06641 636.54883 C 626.07564 627.36121 613.23315 633.38088 606.00977 623.88672 C 595.17198 621.43658 582.72619 618.2982 576.37695 608.25391 C 573.42279 597.91253 560.37048 600.04773 555.09766 593.22266 C 553.46126 583.69828 545.84873 577.04035 540.79883 569.25781 C 533.80061 563.44924 531.16114 554.61887 524.21289 548.77148 C 515.73962 543.60177 516.68524 533.3765 511.36914 526.48242 C 504.26176 519.79595 499.24535 511.43443 490.93359 506.21289 C 480.0051 500.18123 481.94083 485.42726 471.85742 479.21094 C 463.17939 472.83696 454.98552 466.71241 445.52734 461.5332 C 435.63678 455.12782 424.2757 450.92303 415.23047 443.28711 C 405.62802 439.23752 402.88172 428.52915 395.29492 422.15234 C 394.1814 419.68998 392.98044 418.50172 391.72266 418.16797 z M 844.30469 456.01953 C 838.42578 455.86798 835.28272 462.29853 829.31055 462.6582 C 823.40094 464.40203 817.58531 467.3214 813.88281 472.34961 C 812.89491 480.04582 807.07828 484.87344 799.68555 486.35742 C 792.25862 491.69182 782.74938 489.17538 774.15234 489.29102 C 767.26111 492.10515 764.9555 485.26487 760.57227 481.86133 C 754.91597 479.22692 753.44212 471.63327 746.60547 472.1582 C 740.06439 471.98312 733.24306 472.08775 726.98242 474.11133 C 721.98333 477.18243 715.62887 478.77564 709.7793 480.46094 C 700.3703 480.1131 691.37484 482.97154 682.24219 484.68359 C 682.89127 484.00691 677.42528 484.35587 674.82031 485.41992 C 669.09515 488.5489 662.32265 487.33537 656.4375 489.75977 C 648.79412 492.77062 640.86601 502.65673 645.57422 510.74023 C 645.38351 514.51234 646.41898 519.15417 647.89844 523.32031 C 654.51229 530.84534 662.53209 537.33432 667.53906 546.12891 C 670.86182 551.94338 676.5842 555.84237 680.16602 561.37891 C 683.35342 569.13562 690.62581 573.85632 696.11914 579.85938 C 701.25978 584.35059 704.29913 590.61248 709.14844 595.32617 C 717.4972 602.3901 727.63997 606.82777 737.30664 611.74023 C 743.74929 614.77394 745.58726 622.24717 750.81641 626.59766 C 757.07565 632.02922 764.61086 636.19368 768.98828 643.53516 C 772.29293 649.1749 775.99047 654.65226 781.3457 658.56836 C 785.5835 665.52482 793.16735 669.28347 799.17773 674.46484 C 807.05343 679.3681 810.25794 688.68986 817.68945 694.05469 C 822.35947 697.73927 819.1681 704.3686 820.12109 709.37891 C 819.02879 715.77501 820.63525 722.60502 825.95312 726.73828 C 830.75277 731.11417 835.00555 735.63459 840.35742 739.32227 C 845.87449 742.10913 849.13073 747.30269 854.0332 750.88477 C 866.56871 755.51215 878.99278 760.7642 891.87305 764.50781 C 897.30418 766.76465 901.944 770.86349 908.07031 771.34375 C 915.49463 772.09753 921.52571 776.77089 926.32422 782.16016 C 929.67552 786.50648 938.13931 784.61952 939.07422 790.92188 C 937.85003 797.28265 940.14994 803.53656 945.05664 807.54297 C 950.10246 812.13623 953.69853 818.53881 961.08398 820.30469 C 970.88962 823.48265 979.01554 829.95724 988.02734 834.7168 C 991.19021 835.52478 993.80975 837.16963 996.24414 839.08984 A 100 100 0 0 0 998 828 L 998 512.16602 C 994.78802 510.99031 988.32583 505.43423 982.92773 504.59375 C 974.91414 504.82546 973.92305 495.0079 966.93359 494.08008 C 960.94588 494.5125 954.09165 494.37797 948.74219 491.14453 C 940.71643 489.58993 933.36097 485.60556 925.25391 484.43945 C 917.36465 483.31136 910.57456 478.68315 902.77734 477.05078 C 896.28748 474.3675 890.05636 471.20699 883.0293 470.07422 C 877.56573 468.85514 872.03243 467.46985 866.96875 464.98633 C 859.57798 463.84267 854.53453 456.18722 847.00781 456.52539 C 846.04015 456.19817 845.14453 456.04118 844.30469 456.01953 z " /></g></svg>
